<svg width="96" height="96" viewBox="0 0 96 96" xmlns="http://www.w3.org/2000/svg">
    <g fill="none" fill-rule="evenodd" opacity=".3">
        <path d="M0 0h96v96H0z"/>
        <g fill="#666" fill-rule="nonzero">
            <path d="M30.72 80.71a5.168 5.168 0 0 0 4.092 5.054c-.007.096-.011.192-.011.288-.014.711.192 1.409.59 1.998.297.47.805.764 1.36.79a1.704 1.704 0 0 0 1.361-.788c.397-.59.603-1.287.59-1.998 0-.06 0-.119-.007-.178h18.15c0 .06-.006.118-.006.178-.014.711.192 1.409.59 1.998a1.568 1.568 0 0 0 2.72 0c.398-.59.605-1.287.591-1.998 0-.098-.003-.194-.01-.288a5.168 5.168 0 0 0 4.091-5.054v-3.925H30.72v3.923zm28.935-45.47h-3.914V9.994c.178-.25.274-.548.273-.855a1.44 1.44 0 0 0-1.428-1.458H41.637a1.4 1.4 0 0 0-.95.372.405.405 0 0 0-.115-.018c-.429 0-.777.697-.777 1.556v25.65h-3.91a5.166 5.166 0 0 0-5.165 5.166v6.048h34.101v-6.048a5.167 5.167 0 0 0-5.166-5.166m-5.472 0H41.35V10.568c.095.02.191.03.288.03h12.547l-.002 24.642zM30.72 74.745h34.101V48.496H30.72v26.249z"/>
            <path d="M55.178 9.138a1.44 1.44 0 0 1-1.429 1.458H40.802a1.44 1.44 0 0 1-1.429-1.458 1.44 1.44 0 0 1 1.429-1.458h12.947a1.44 1.44 0 0 1 1.429 1.458"/>
        </g>
    </g>
</svg>
